# xmcd CD database file
#
# Track frame offsets:
#	150
#	18839
#	41281
#	57043
#	77014
#	94390
#	111782
#	129041
#	146081
#	161823
#	175990
#	191582
#	207944
#	226623
#	242751
#	261457
#	278036
#
# Disc length: 3974 seconds
#
# Revision: 6
# Processed by: cddbd v1.5.2PL0 Copyright (c) Steve Scherf et al.
# Submitted via: CDex 1.51
#
DISCID=e10f8411
DTITLE=Various Artist - La Collection en Or - TUBES DE L'ÉTÉ  [CD 2-2]
DYEAR=2009
DGENRE=Ambiance
TTITLE0=Bandolero - Paris Latino   [1983]
TTITLE1=Tony Esposito - Kalimba De Luna   [1984]
TTITLE2=Schotch - Take Me Up   [1985]
TTITLE3=Mc Miker ''G'' and Deejay Sven - Holiday Rap   [1986]
TTITLE4=Début de Soirée - La vie la nuit   [1988]
TTITLE5=Nerio's Dubwork Meets Darryl Pandy - Sunshine and Happiness   [1999]
TTITLE6=Annabelle - Fuis Lawrence d'Arabie   [1987]
TTITLE7=Chagrin D'Amour - Monte Carlo   [1984]
TTITLE8=Jakie Quartz - Vivre ailleurs   [1986]
TTITLE9=Phenomenal Club - Pedro va au Brésil   [1997]
TTITLE10=Floorfilla - Anthem   [1999]
TTITLE11=666 - Diablo   [1997]
TTITLE12=Unlimited - Twilight Zone   [1992]
TTITLE13=Bass Bumpers - The Music 'S Got Me   [1992]
TTITLE14=Haddaway - Rock My Heart   [1993]
TTITLE15=Jungle Style - Soukwey  (Olé Ola)   [1997]
TTITLE16=Whigfield - Megamix   [1997]
EXTD=YEAR: 2009
EXTT0=
EXTT1=
EXTT2=
EXTT3=
EXTT4=
EXTT5=
EXTT6=
EXTT7=
EXTT8=
EXTT9=
EXTT10=
EXTT11=
EXTT12=
EXTT13=
EXTT14=
EXTT15=
EXTT16=
PLAYORDER=
